<svg id="visual" viewBox="0 0 960 150" width="960" height="150" preserveAspectRatio="none" xmlns="http://www.w3.org/2000/svg" xmlns:xlink="http://www.w3.org/1999/xlink" version="1.1"><path d="M0 34L22.8 32.8C45.7 31.7 91.3 29.3 137 25.2C182.7 21 228.3 15 274 16C319.7 17 365.3 25 411.2 26C457 27 503 21 548.8 18.2C594.7 15.3 640.3 15.7 686 16.2C731.7 16.7 777.3 17.3 823 19.3C868.7 21.3 914.3 24.7 937.2 26.3L960 28L960 0L937.2 0C914.3 0 868.7 0 823 0C777.3 0 731.7 0 686 0C640.3 0 594.7 0 548.8 0C503 0 457 0 411.2 0C365.3 0 319.7 0 274 0C228.3 0 182.7 0 137 0C91.3 0 45.7 0 22.8 0L0 0Z" fill="#0d6efd"></path><path d="M0 75L22.8 78.5C45.7 82 91.3 89 137 82.2C182.7 75.3 228.3 54.7 274 49.3C319.7 44 365.3 54 411.2 59.5C457 65 503 66 548.8 65.3C594.7 64.7 640.3 62.3 686 63.8C731.7 65.3 777.3 70.7 823 67.3C868.7 64 914.3 52 937.2 46L960 40L960 26L937.2 24.3C914.3 22.7 868.7 19.3 823 17.3C777.3 15.3 731.7 14.7 686 14.2C640.3 13.7 594.7 13.3 548.8 16.2C503 19 457 25 411.2 24C365.3 23 319.7 15 274 14C228.3 13 182.7 19 137 23.2C91.3 27.3 45.7 29.7 22.8 30.8L0 32Z" fill="#668fff"></path><path d="M0 99L22.8 101C45.7 103 91.3 107 137 99C182.7 91 228.3 71 274 66C319.7 61 365.3 71 411.2 76C457 81 503 81 548.8 82.5C594.7 84 640.3 87 686 88.5C731.7 90 777.3 90 823 83.5C868.7 77 914.3 64 937.2 57.5L960 51L960 38L937.2 44C914.3 50 868.7 62 823 65.3C777.3 68.7 731.7 63.3 686 61.8C640.3 60.3 594.7 62.7 548.8 63.3C503 64 457 63 411.2 57.5C365.3 52 319.7 42 274 47.3C228.3 52.7 182.7 73.3 137 80.2C91.3 87 45.7 80 22.8 76.5L0 73Z" fill="#98b1fe"></path><path d="M0 144L22.8 143.2C45.7 142.3 91.3 140.7 137 135.3C182.7 130 228.3 121 274 118.8C319.7 116.7 365.3 121.3 411.2 123.8C457 126.3 503 126.7 548.8 124.3C594.7 122 640.3 117 686 119C731.7 121 777.3 130 823 132.5C868.7 135 914.3 131 937.2 129L960 127L960 49L937.2 55.5C914.3 62 868.7 75 823 81.5C777.3 88 731.7 88 686 86.5C640.3 85 594.7 82 548.8 80.5C503 79 457 79 411.2 74C365.3 69 319.7 59 274 64C228.3 69 182.7 89 137 97C91.3 105 45.7 101 22.8 99L0 97Z" fill="#c5d3fb"></path><path d="M0 151L22.8 151C45.7 151 91.3 151 137 151C182.7 151 228.3 151 274 151C319.7 151 365.3 151 411.2 151C457 151 503 151 548.8 151C594.7 151 640.3 151 686 151C731.7 151 777.3 151 823 151C868.7 151 914.3 151 937.2 151L960 151L960 125L937.2 127C914.3 129 868.7 133 823 130.5C777.3 128 731.7 119 686 117C640.3 115 594.7 120 548.8 122.3C503 124.7 457 124.3 411.2 121.8C365.3 119.3 319.7 114.7 274 116.8C228.3 119 182.7 128 137 133.3C91.3 138.7 45.7 140.3 22.8 141.2L0 142Z" fill="#f3f4f7"></path></svg>